<svg width="720" height="200" viewBox="0 0 720 200" fill="none" xmlns="http://www.w3.org/2000/svg">
  <rect width="720" height="200" rx="28" fill="#F8FAFC"/>
  <rect x="36" y="36" width="128" height="128" rx="32" fill="#0F172A"/>
  <path d="M72 64H106C124.778 64 140 79.2223 140 98C140 116.778 124.778 132 106 132H72V64Z" fill="#2563EB"/>
  <path d="M88 78H107C118.046 78 127 86.9543 127 98C127 109.046 118.046 118 107 118H88" stroke="#E2E8F0" stroke-width="12" stroke-linecap="round" stroke-linejoin="round"/>
  <path d="M88 98H112C124.15 98 134 107.85 134 120C134 132.15 124.15 142 112 142H88" stroke="#14B8A6" stroke-width="12" stroke-linecap="round" stroke-linejoin="round"/>
  <path d="M222 73H276.722C300.622 73 315.444 84.4067 315.444 104.102C315.444 117.654 308.317 126.855 295.259 130.56C311.102 133.678 319.303 143.659 319.303 158.164C319.303 181.771 302.959 194 277.012 194H222V73ZM274.394 123.836C286.087 123.836 293.507 117.878 293.507 107.167C293.507 96.456 286.087 90.7893 274.394 90.7893H244.083V123.836H274.394ZM275.262 176.21C288.903 176.21 297.366 169.96 297.366 158.846C297.366 147.732 288.903 141.141 275.262 141.141H244.083V176.21H275.262Z" fill="#0F172A"/>
  <path d="M337.442 103.602H359.38L382.194 167.253L405.152 103.602H425.79L386.643 194H375.242L337.442 103.602Z" fill="#0F172A"/>
  <path d="M439.814 103.602H460.018V194H439.814V103.602Z" fill="#0F172A"/>
  <path d="M481.794 103.602H546.278V119.855H502.289V139.678H540.918V155.643H502.289V177.746H548.039V194H481.794V103.602Z" fill="#0F172A"/>
  <path d="M563.977 103.602H583.734L597.087 162.679L612.351 103.602H631.226L646.488 162.679L659.842 103.602H679.599L655.161 194H637.319L621.767 136.691L606.112 194H588.415L563.977 103.602Z" fill="#0F172A"/>
  <path d="M68 154H144" stroke="#334155" stroke-width="2" opacity="0.18"/>
</svg>
