<svg width="640" height="240" viewBox="0 0 640 240" fill="none" xmlns="http://www.w3.org/2000/svg">
  <rect width="640" height="240" rx="28" fill="#F9FAFB"/>
  <rect x="36" y="36" width="168" height="168" rx="42" fill="#111827"/>
  <ellipse cx="120" cy="120" rx="56" ry="38" stroke="#0EA5E9" stroke-width="14"/>
  <ellipse cx="120" cy="120" rx="32" ry="62" stroke="#38BDF8" stroke-width="10"/>
  <circle cx="120" cy="120" r="14" fill="#F3F4F6"/>
  <circle cx="164" cy="92" r="8" fill="#0EA5E9"/>
  <path d="M275.16 79H290.92V113.56H332.632V79H348.392V161H332.632V126.28H290.92V161H275.16V79Z" fill="#111827"/>
  <path d="M362.355 79H420.867V91.384H378.115V113.128H415.539V124.936H378.115V148.616H422.211V161H362.355V79Z" fill="#111827"/>
  <path d="M451.142 79C470.35 79 482.478 88.552 482.478 104.792C482.478 118.152 474.718 126.904 462.11 129.448L484.734 161H466.63L446.614 130.888H441.19V161H425.43V79H451.142ZM449.654 118.984C460.262 118.984 466.382 114.952 466.382 105.448C466.382 95.944 460.262 91.912 449.654 91.912H441.19V118.984H449.654Z" fill="#111827"/>
  <path d="M494.627 79H510.387V161H494.627V79Z" fill="#111827"/>
  <path d="M525.329 79H583.841V91.384H541.089V113.128H578.513V124.936H541.089V148.616H585.185V161H525.329V79Z" fill="#111827"/>
</svg>
