<svg width="640" height="240" viewBox="0 0 640 240" fill="none" xmlns="http://www.w3.org/2000/svg">
  <rect width="640" height="240" rx="28" fill="#F8FAFC"/>
  <rect x="36" y="36" width="168" height="168" rx="42" fill="#0F172A"/>
  <path d="M84 72H132C158.51 72 180 93.49 180 120C180 146.51 158.51 168 132 168H84V72Z" fill="#2563EB"/>
  <path d="M84 72H124C146.091 72 164 89.909 164 112C164 134.091 146.091 152 124 152H84V72Z" fill="#14B8A6"/>
  <path d="M104 88H126C143.673 88 158 102.327 158 120C158 137.673 143.673 152 126 152H104" stroke="#E2E8F0" stroke-width="16" stroke-linecap="round" stroke-linejoin="round"/>
  <path d="M104 120H130C147.673 120 162 134.327 162 152C162 169.673 147.673 184 130 184H104" stroke="#E2E8F0" stroke-width="16" stroke-linecap="round" stroke-linejoin="round"/>
  <circle cx="284" cy="93" r="6" fill="#14B8A6"/>
  <circle cx="284" cy="148" r="6" fill="#2563EB"/>
  <path d="M308 79H323.664L362.408 161H346.792L338.456 142.632H293.472L285.184 161H269.52L308 79ZM332.6 130.776L315.984 94.152L299.32 130.776H332.6Z" fill="#0F172A"/>
  <path d="M372.519 79H388.279V148.616H431.431V161H372.519V79Z" fill="#0F172A"/>
  <path d="M465.202 79C490.546 79 505.202 93.176 505.202 120C505.202 146.824 490.546 161 465.202 161H436.69V79H465.202ZM464.53 148.376C480.866 148.376 489.106 138.584 489.106 120C489.106 101.464 480.866 91.624 464.53 91.624H452.45V148.376H464.53Z" fill="#0F172A"/>
  <path d="M518.671 79H577.183V91.384H534.431V113.128H571.855V124.936H534.431V148.616H578.527V161H518.671V79Z" fill="#0F172A"/>
</svg>
