<svg width="640" height="240" viewBox="0 0 640 240" fill="none" xmlns="http://www.w3.org/2000/svg">
  <rect width="640" height="240" rx="28" fill="#F8FAFC"/>
  <rect x="36" y="36" width="168" height="168" rx="42" fill="#1E293B"/>
  <path d="M78 154L106 92L132 142L162 84" stroke="#F59E0B" stroke-width="16" stroke-linecap="round" stroke-linejoin="round"/>
  <circle cx="78" cy="154" r="12" fill="#0F766E"/>
  <circle cx="106" cy="92" r="12" fill="#E2E8F0"/>
  <circle cx="132" cy="142" r="12" fill="#0F766E"/>
  <circle cx="162" cy="84" r="12" fill="#E2E8F0"/>
  <path d="M275.16 79H290.92L309.36 141.176L328.088 79H341.112L359.792 141.176L378.28 79H394.328L367.984 161H352.752L334.448 101.656L316.144 161H300.96L275.16 79Z" fill="#1E293B"/>
  <path d="M405.636 79H421.396V161H405.636V79Z" fill="#1E293B"/>
  <path d="M436.338 79H494.85V91.384H452.098V113.128H489.522V124.936H452.098V148.616H496.194V161H436.338V79Z" fill="#1E293B"/>
  <path d="M524.885 79C550.229 79 564.885 93.176 564.885 120C564.885 146.824 550.229 161 524.885 161H496.373V79H524.885ZM524.213 148.376C540.549 148.376 548.789 138.584 548.789 120C548.789 101.464 540.549 91.624 524.213 91.624H512.133V148.376H524.213Z" fill="#1E293B"/>
</svg>
